<svg width="1080" height="453" viewBox="0 0 1080 453" fill="none" xmlns="http://www.w3.org/2000/svg">
<path d="M764.466 216C725.131 216 688.361 210.857 654.157 200.571C619.953 188.571 575.487 170.571 520.76 146.571C472.874 124.286 430.119 107.143 392.494 95.1429C356.58 83.1429 318.1 77.1429 277.055 77.1429C215.487 77.1429 164.181 86.5715 123.135 105.429C82.0903 124.286 41.0451 156 0 200.571C59.8575 66.8572 165.036 0 315.534 0C353.159 0 388.219 6 420.713 18C453.207 28.2857 495.107 44.5714 546.413 66.8571C599.43 90.8571 644.751 108.857 682.375 120.857C720 132.857 760.19 138.857 802.945 138.857C864.513 138.857 915.819 129.429 956.865 110.571C997.91 91.7143 1038.95 60 1080 15.4285C1020.14 149.143 914.964 216 764.466 216Z" fill="#2364A9"/>
<path d="M764.466 453C725.131 453 688.361 447.857 654.157 437.571C619.953 425.571 575.487 407.571 520.76 383.571C472.874 361.286 430.119 344.143 392.494 332.143C356.58 320.143 318.1 314.143 277.055 314.143C215.487 314.143 164.181 323.571 123.135 342.429C82.0903 361.286 41.0451 393 0 437.571C59.8575 303.857 165.036 237 315.534 237C353.159 237 388.219 243 420.713 255C453.207 265.286 495.107 281.571 546.413 303.857C599.43 327.857 644.751 345.857 682.375 357.857C720 369.857 760.19 375.857 802.945 375.857C864.513 375.857 915.819 366.429 956.865 347.571C997.91 328.714 1038.95 297 1080 252.429C1020.14 386.143 914.964 453 764.466 453Z" fill="#2364A9"/>
</svg>
